<svg width="100" height="20" viewBox="0 0 125 25" fill="none" xmlns="http://www.w3.org/2000/svg">
<path d="M59.0172 10.2058C59.0172 6.7708 61.1125 4.9159 64.1353 4.9159C66.8833 4.9159 68.9787 6.7708 68.9787 10.2058V23.4993H73.2381V10.2058C73.2381 6.7708 75.3334 4.9159 78.3562 4.9159C81.1042 4.9159 83.1996 6.7708 83.1996 10.3089V23.4993H87.459V9.27835C87.459 4.2976 83.8522 1 79.4554 1C76.1922 1 73.7877 2.6488 72.3793 5.29375H71.6923C70.3527 2.40835 68.1543 1 65.3032 1C62.83 1 60.5973 2.06485 59.2233 4.3663H58.8798V1.44655H54.7578V23.4993H59.0172V10.2058ZM113.221 23.9802C117.927 23.9802 122.118 21.7474 122.118 17.1789C122.118 13.2973 119.301 11.5111 115.179 10.7898L114.149 10.5837C112.019 10.1371 109.065 9.8623 109.065 7.62955C109.065 5.63725 111.47 4.9159 113.462 4.9159C115.557 4.9159 117.653 5.91205 117.653 8.17915H121.912V8.11045C121.912 3.50755 118.202 1 113.565 1C108.412 1 105.184 4.1602 105.184 7.76695C105.184 11.992 107.932 13.4004 112.122 14.1904C112.363 14.2248 112.844 14.3278 113.05 14.3622C115.179 14.7744 118.305 15.0148 118.305 17.2476C118.305 19.3429 115.66 20.0643 113.565 20.0643C111.023 20.0643 108.756 18.8277 108.55 16.3545H104.222V16.3888C104.565 20.923 107.76 23.9802 113.221 23.9802ZM93.6076 23.4993H97.867V1.44655H93.6076V23.4993ZM39.369 23.9802C45.0024 23.9802 48.6091 20.5795 48.6091 14.9461V1.44655H44.3497V14.7744C44.3497 17.9002 42.7696 20.0643 39.369 20.0643C35.9683 20.0643 34.3882 18.0033 34.3882 14.7744V1.44655H30.1288V14.9461C30.1288 20.5795 33.7356 23.9802 39.369 23.9802ZM21.8515 19.1286C23.1863 17.2517 23.9747 14.9605 23.9747 12.4873C23.9747 6.15319 18.8215 1 12.4873 1C6.15319 1 1 6.15319 1 12.4873C1 18.8215 6.15319 23.9747 12.4873 23.9747C14.9609 23.9747 17.252 23.1863 19.1289 21.8511L22.2774 24.9997L25 22.2771L21.8515 19.1286ZM19.0722 16.3496L13.8486 11.1264L11.126 13.849L16.3496 19.0726C15.2157 19.7403 13.896 20.1251 12.4873 20.1251C8.27602 20.1251 4.84995 16.699 4.84995 12.4877C4.84995 8.27636 8.27602 4.85029 12.4873 4.85029C16.6986 4.85029 20.1247 8.27636 20.1247 12.4877C20.1247 13.896 19.74 15.2157 19.0722 16.3496Z" fill="#FFFFFF"/>
</svg>
